<svg width="100" height="100" viewBox="0 0 100 100" fill="none" xmlns="http://www.w3.org/2000/svg">
<g filter="url(#filter0_b_396_7)">
<rect width="100" height="100" fill="white"/>
<rect x="0.5" y="0.5" width="99" height="99" stroke="#EDEDED"/>
</g>
<path d="M58.1406 40.7344H54.8203L54.0293 38.5176C53.9746 38.3659 53.8745 38.2348 53.7425 38.1421C53.6106 38.0495 53.4532 37.9999 53.292 38H45.8018C45.4722 38 45.1768 38.2075 45.0669 38.5176L44.2734 40.7344H40.9531C39.874 40.7344 39 41.6084 39 42.6875V53.8203C39 54.8994 39.874 55.7734 40.9531 55.7734H58.1406C59.2197 55.7734 60.0938 54.8994 60.0938 53.8203V42.6875C60.0938 41.6084 59.2197 40.7344 58.1406 40.7344ZM49.5469 51.8672C47.3887 51.8672 45.6406 50.1191 45.6406 47.9609C45.6406 45.8027 47.3887 44.0547 49.5469 44.0547C51.7051 44.0547 53.4531 45.8027 53.4531 47.9609C53.4531 50.1191 51.7051 51.8672 49.5469 51.8672ZM47.2031 47.9609C47.2031 48.5825 47.4501 49.1787 47.8896 49.6182C48.3291 50.0578 48.9253 50.3047 49.5469 50.3047C50.1685 50.3047 50.7646 50.0578 51.2042 49.6182C51.6437 49.1787 51.8906 48.5825 51.8906 47.9609C51.8906 47.3393 51.6437 46.7432 51.2042 46.3037C50.7646 45.8641 50.1685 45.6172 49.5469 45.6172C48.9253 45.6172 48.3291 45.8641 47.8896 46.3037C47.4501 46.7432 47.2031 47.3393 47.2031 47.9609Z" fill="#545454"/>
<defs>
<filter id="filter0_b_396_7" x="-4" y="-4" width="108" height="108" filterUnits="userSpaceOnUse" color-interpolation-filters="sRGB">
<feFlood flood-opacity="0" result="BackgroundImageFix"/>
<feGaussianBlur in="BackgroundImageFix" stdDeviation="2"/>
<feComposite in2="SourceAlpha" operator="in" result="effect1_backgroundBlur_396_7"/>
<feBlend mode="normal" in="SourceGraphic" in2="effect1_backgroundBlur_396_7" result="shape"/>
</filter>
</defs>
</svg>
