<svg width="38" height="38" viewBox="0 0 38 38" fill="none" xmlns="http://www.w3.org/2000/svg">
<path fill-rule="evenodd" clip-rule="evenodd" d="M18.9993 0.666504C8.87435 0.666504 0.666016 8.87484 0.666016 18.9998C0.666016 29.1248 8.87435 37.3332 18.9993 37.3332C29.1243 37.3332 37.3327 29.1248 37.3327 18.9998C37.3327 8.87484 29.1243 0.666504 18.9993 0.666504ZM26.946 15.8998C27.0923 15.7326 27.2037 15.5377 27.2737 15.3268C27.3436 15.1158 27.3706 14.893 27.3531 14.6715C27.3357 14.4499 27.2741 14.2341 27.172 14.0367C27.0699 13.8393 26.9293 13.6643 26.7586 13.5221C26.5879 13.3798 26.3904 13.2731 26.1778 13.2083C25.9653 13.1434 25.7419 13.1218 25.5208 13.1445C25.2998 13.1673 25.0855 13.2341 24.8906 13.3409C24.6957 13.4477 24.5241 13.5924 24.386 13.7665L17.2193 22.3648L13.511 18.6548C13.1967 18.3512 12.7757 18.1832 12.3387 18.187C11.9017 18.1908 11.4837 18.3661 11.1747 18.6751C10.8656 18.9842 10.6904 19.4022 10.6866 19.8392C10.6828 20.2762 10.8508 20.6972 11.1543 21.0115L16.1543 26.0115C16.3181 26.1752 16.5142 26.3029 16.73 26.3866C16.9459 26.4703 17.1768 26.5081 17.4081 26.4976C17.6394 26.4871 17.866 26.4285 18.0734 26.3256C18.2808 26.2227 18.4644 26.0777 18.6127 25.8998L26.946 15.8998Z" fill="#95D1CC"/>
</svg>
